# xmcd
#
# Track frame offsets:
#	150
#	20845
#	36615
#	47876
#	62892
#	76710
#	89667
#	104160
#	117992
#	132172
#	148628
#	162007
#	174805
#	188420
#	202038
#	217330
#
# Disc length: 3096 seconds
#
# Revision: 0
# Processed by: cddbd v1.5.2PL0 Copyright (c) Steve Scherf et al.
# Submitted via: EasyCDDAExtractor 16.0.8.2
#
DISCID=ef0c1610
DTITLE=Ανδρεάτος Γεράσιμος - Δυό αλήθειες-Ά. Πάνου
DYEAR=2002
DGENRE=Λαϊκή
TTITLE0=Χωρίς αυτήν [Άκη Πάνου]
TTITLE1=Κοίτα με στα μάτια [Άκη Πάνου]
TTITLE2=Το θολωμένο μου μυαλό [Άκη Πάνου]
TTITLE3=Και τι δεν κάνω [Άκη Πάνου]
TTITLE4=Ο τρελλός [Άκη Πάνου]
TTITLE5=Δυό αλήθειες [Άκη Πάνου]
TTITLE6=Όταν σημάνει η ώρα [Άκη Πάνου]
TTITLE7=Είδα τα μάτια σου κλαμένα [Άκη Πάνου]
TTITLE8=Μοίρα μου γιατί μ' αφήνεις [Άκη Πάνου]
TTITLE9=Ξαναγεννήθηκα [Άκη Πάνου]
TTITLE10=Πόσα πρέπει [Άκη Πάνου]
TTITLE11=Αχαριστία [Άκη Πάνου]
TTITLE12=Και τότε σ' αγαπώ [Άκη Πάνου]
TTITLE13=Άντε να περάσει η μέρα [Άκη Πάνου]
TTITLE14=Παράνομη αγάπη [Άκη Πάνου]
TTITLE15=Δώσ' μου να πιω [Άκη Πάνου]
EXTD=
EXTT0=
EXTT1=
EXTT2=
EXTT3=
EXTT4=
EXTT5=
EXTT6=
EXTT7=
EXTT8=
EXTT9=
EXTT10=
EXTT11=
EXTT12=
EXTT13=
EXTT14=
EXTT15=
PLAYORDER=
